<?xml version="1.0" encoding="UTF-8"?>
<svg height="16px" viewBox="0 0 16 16" width="16px" xmlns="http://www.w3.org/2000/svg">
    <path d="m 4 2 c -1.109375 0 -2 0.890625 -2 2 v 8 c 0 1.109375 0.890625 2 2 2 h 8 c 1.109375 0 2 -0.890625 2 -2 v -8 c 0 -1.109375 -0.890625 -2 -2 -2 z m 1 2 h 6 c 0.554688 0 1 0.445312 1 1 v 1 h -4.492188 c -0.277343 0 -0.5 0.222656 -0.5 0.5 v 0.511719 h -0.007812 v 0.488281 c 0 0.277344 -0.222656 0.5 -0.5 0.5 h -1 c -0.277344 0 -0.5 -0.222656 -0.5 -0.5 v -1 c 0 -0.277344 -0.222656 -0.5 -0.5 -0.5 h -0.5 v -1 c 0 -0.554688 0.445312 -1 1 -1 z m 4.5 4 h 1 c 0.277344 0 0.5 0.222656 0.5 0.5 v 0.488281 h 0.007812 v 0.511719 c 0 0.277344 0.222657 0.5 0.5 0.5 h 0.492188 v 1 c 0 0.554688 -0.445312 1 -1 1 h -6 c -0.554688 0 -1 -0.445312 -1 -1 v -1 h 4.5 c 0.277344 0 0.5 -0.222656 0.5 -0.5 v -1 c 0 -0.277344 0.222656 -0.5 0.5 -0.5 z m 0 0"/>
</svg>
