<?xml version="1.0" encoding="UTF-8"?>
<svg height="128px" viewBox="0 0 128 128" width="128px" xmlns="http://www.w3.org/2000/svg" xmlns:xlink="http://www.w3.org/1999/xlink">
    <linearGradient id="a" gradientUnits="userSpaceOnUse" x1="15.999998" x2="111.999998" y1="68" y2="68">
        <stop offset="0" stop-color="#743c2c"/>
        <stop offset="0.0384615" stop-color="#ba583b"/>
        <stop offset="0.0768555" stop-color="#743c2c"/>
        <stop offset="0.923077" stop-color="#743c2c"/>
        <stop offset="0.961538" stop-color="#ba583b"/>
        <stop offset="1" stop-color="#743c2c"/>
    </linearGradient>
    <path d="m 23.382812 20 h 81.234376 c 4.078124 0 7.382812 3.65625 7.382812 8.171875 v 79.65625 c 0 4.515625 -3.304688 8.171875 -7.382812 8.171875 h -81.234376 c -4.078124 0 -7.382812 -3.65625 -7.382812 -8.171875 v -79.65625 c 0 -4.515625 3.304688 -8.171875 7.382812 -8.171875 z m 0 0" fill="url(#a)"/>
    <path d="m 41 22 c -0.554688 0 -1 0.445312 -1 1 v 11.832031 c 0 0.648438 -0.519531 1.167969 -1.167969 1.167969 h -11.832031 c -0.554688 0 -1 0.445312 -1 1 v 46 c 0 0.554688 0.445312 1 1 1 h 11.832031 c 0.648438 0 1.167969 0.519531 1.167969 1.167969 v 11.832031 c 0 0.554688 0.445312 1 1 1 h 46 c 0.554688 0 1 -0.445312 1 -1 v -11.832031 c 0 -0.648438 0.519531 -1.167969 1.167969 -1.167969 h 11.832031 c 0.554688 0 1 -0.445312 1 -1 v -46 c 0 -0.554688 -0.445312 -1 -1 -1 h -11.832031 c -0.648438 0 -1.167969 -0.519531 -1.167969 -1.167969 v -11.832031 c 0 -0.554688 -0.445312 -1 -1 -1 z m 0 0" fill="#ffa300"/>
    <path d="m 41.167969 18 c -0.648438 0 -1.167969 0.519531 -1.167969 1.167969 v 2.832031 h -4 v 2 h -8.832031 c -0.648438 0 -1.167969 0.519531 -1.167969 1.167969 v 8.832031 h -4 v 6 h 4 v -1 c 0 -0.554688 0.445312 -1 1 -1 h 11.832031 c 0.648438 0 1.167969 -0.519531 1.167969 -1.167969 v -11.832031 c 0 -0.554688 0.445312 -1 1 -1 h 46 c 0.554688 0 1 0.445312 1 1 v 11.832031 c 0 0.648438 0.519531 1.167969 1.167969 1.167969 h 11.832031 c 0.554688 0 1 0.445312 1 1 v 1 h 4 v -6 h -4 v -8.832031 c 0 -0.648438 -0.519531 -1.167969 -1.167969 -1.167969 h -8.832031 v -2 h -4 v -2.832031 c 0 -0.648438 -0.519531 -1.167969 -1.167969 -1.167969 z m -0.167969 20 c -0.554688 0 -1 0.445312 -1 1 v 10 c 0 0.554688 0.445312 1 1 1 h 10 c 0.554688 0 1 -0.445312 1 -1 v -10 c 0 -0.554688 -0.445312 -1 -1 -1 z m 36 0 c -0.554688 0 -1 0.445312 -1 1 v 10 c 0 0.554688 0.445312 1 1 1 h 10 c 0.554688 0 1 -0.445312 1 -1 v -10 c 0 -0.554688 -0.445312 -1 -1 -1 z m -24 12 c -0.554688 0 -1 0.445312 -1 1 v 22 c 0 0.554688 0.445312 1 1 1 h 22 c 0.554688 0 1 -0.445312 1 -1 v -22 c 0 -0.554688 -0.445312 -1 -1 -1 z m -12 24 c -0.554688 0 -1 0.445312 -1 1 v 10 c 0 0.554688 0.445312 1 1 1 h 10 c 0.554688 0 1 -0.445312 1 -1 v -10 c 0 -0.554688 -0.445312 -1 -1 -1 z m 36 0 c -0.554688 0 -1 0.445312 -1 1 v 10 c 0 0.554688 0.445312 1 1 1 h 10 c 0.554688 0 1 -0.445312 1 -1 v -10 c 0 -0.554688 -0.445312 -1 -1 -1 z m -49.832031 12 h 11.664062 z m 0 0" fill="#d38300"/>
    <path d="m 41.167969 16 c -0.648438 0 -1.167969 0.519531 -1.167969 1.167969 v 2.832031 h -4 v 2 h -8.832031 c -0.648438 0 -1.167969 0.519531 -1.167969 1.167969 v 8.832031 h -4 v 6 h 4 v -1 c 0 -0.554688 0.445312 -1 1 -1 h 11.832031 c 0.648438 0 1.167969 -0.519531 1.167969 -1.167969 v -11.832031 c 0 -0.554688 0.445312 -1 1 -1 h 46 c 0.554688 0 1 0.445312 1 1 v 11.832031 c 0 0.648438 0.519531 1.167969 1.167969 1.167969 h 11.832031 c 0.554688 0 1 0.445312 1 1 v 1 h 4 v -6 h -4 v -8.832031 c 0 -0.648438 -0.519531 -1.167969 -1.167969 -1.167969 h -8.832031 v -2 h -4 v -2.832031 c 0 -0.648438 -0.519531 -1.167969 -1.167969 -1.167969 z m -0.167969 20 c -0.554688 0 -1 0.445312 -1 1 v 10 c 0 0.554688 0.445312 1 1 1 h 10 c 0.554688 0 1 -0.445312 1 -1 v -10 c 0 -0.554688 -0.445312 -1 -1 -1 z m 36 0 c -0.554688 0 -1 0.445312 -1 1 v 10 c 0 0.554688 0.445312 1 1 1 h 10 c 0.554688 0 1 -0.445312 1 -1 v -10 c 0 -0.554688 -0.445312 -1 -1 -1 z m -24 12 c -0.554688 0 -1 0.445312 -1 1 v 22 c 0 0.554688 0.445312 1 1 1 h 22 c 0.554688 0 1 -0.445312 1 -1 v -22 c 0 -0.554688 -0.445312 -1 -1 -1 z m -12 24 c -0.554688 0 -1 0.445312 -1 1 v 10 c 0 0.554688 0.445312 1 1 1 h 10 c 0.554688 0 1 -0.445312 1 -1 v -10 c 0 -0.554688 -0.445312 -1 -1 -1 z m 36 0 c -0.554688 0 -1 0.445312 -1 1 v 10 c 0 0.554688 0.445312 1 1 1 h 10 c 0.554688 0 1 -0.445312 1 -1 v -10 c 0 -0.554688 -0.445312 -1 -1 -1 z m -49.832031 12 h 11.664062 z m 0 0" fill="#743c2c"/>
    <path d="m 23.386719 10 c -4.09375 0 -7.386719 3.644531 -7.386719 8.167969 v 79.664062 c 0 4.523438 3.292969 8.167969 7.386719 8.167969 h 81.226562 c 4.09375 0 7.386719 -3.644531 7.386719 -8.167969 v -79.664062 c 0 -4.523438 -3.292969 -8.167969 -7.386719 -8.167969 z m 17.613281 10 h 46 c 0.554688 0 1 0.445312 1 1 v 11.832031 c 0 0.648438 0.519531 1.167969 1.167969 1.167969 h 11.832031 c 0.554688 0 1 0.445312 1 1 v 46 c 0 0.554688 -0.445312 1 -1 1 h -11.832031 c -0.648438 0 -1.167969 0.519531 -1.167969 1.167969 v 11.832031 c 0 0.554688 -0.445312 1 -1 1 h -46 c -0.554688 0 -1 -0.445312 -1 -1 v -11.832031 c 0 -0.648438 -0.519531 -1.167969 -1.167969 -1.167969 h -11.832031 c -0.554688 0 -1 -0.445312 -1 -1 v -46 c 0 -0.554688 0.445312 -1 1 -1 h 11.832031 c 0.648438 0 1.167969 -0.519531 1.167969 -1.167969 v -11.832031 c 0 -0.554688 0.445312 -1 1 -1 z m 0 14 c -0.554688 0 -1 0.445312 -1 1 v 10 c 0 0.554688 0.445312 1 1 1 h 10 c 0.554688 0 1 -0.445312 1 -1 v -10 c 0 -0.554688 -0.445312 -1 -1 -1 z m 36 0 c -0.554688 0 -1 0.445312 -1 1 v 10 c 0 0.554688 0.445312 1 1 1 h 10 c 0.554688 0 1 -0.445312 1 -1 v -10 c 0 -0.554688 -0.445312 -1 -1 -1 z m -24 12 c -0.554688 0 -1 0.445312 -1 1 v 22 c 0 0.554688 0.445312 1 1 1 h 22 c 0.554688 0 1 -0.445312 1 -1 v -22 c 0 -0.554688 -0.445312 -1 -1 -1 z m -12 24 c -0.554688 0 -1 0.445312 -1 1 v 10 c 0 0.554688 0.445312 1 1 1 h 10 c 0.554688 0 1 -0.445312 1 -1 v -10 c 0 -0.554688 -0.445312 -1 -1 -1 z m 36 0 c -0.554688 0 -1 0.445312 -1 1 v 10 c 0 0.554688 0.445312 1 1 1 h 10 c 0.554688 0 1 -0.445312 1 -1 v -10 c 0 -0.554688 -0.445312 -1 -1 -1 z m 0 0" fill="#ab5236"/>
    <path d="m 41 19 c -0.554688 0 -1 0.445312 -1 1 v 1 c 0 -0.554688 0.445312 -1 1 -1 h 46 c 0.554688 0 1 0.445312 1 1 v -1 c 0 -0.554688 -0.445312 -1 -1 -1 z m -1 12.832031 c 0 0.648438 -0.519531 1.167969 -1.167969 1.167969 h -11.832031 c -0.554688 0 -1 0.445312 -1 1 v 1 c 0 -0.554688 0.445312 -1 1 -1 h 11.832031 c 0.648438 0 1.167969 -0.519531 1.167969 -1.167969 z m 48 0 v 1 c 0 0.648438 0.519531 1.167969 1.167969 1.167969 h 11.832031 c 0.554688 0 1 0.445312 1 1 v -1 c 0 -0.554688 -0.445312 -1 -1 -1 h -11.832031 c -0.648438 0 -1.167969 -0.519531 -1.167969 -1.167969 z m -48 12.167969 v 1 c 0 0.554688 0.445312 1 1 1 h 10 c 0.554688 0 1 -0.445312 1 -1 v -1 c 0 0.554688 -0.445312 1 -1 1 h -10 c -0.554688 0 -1 -0.445312 -1 -1 z m 36 0 v 1 c 0 0.554688 0.445312 1 1 1 h 10 c 0.554688 0 1 -0.445312 1 -1 v -1 c 0 0.554688 -0.445312 1 -1 1 h -10 c -0.554688 0 -1 -0.445312 -1 -1 z m -24 24 v 1 c 0 0.554688 0.445312 1 1 1 h 22 c 0.554688 0 1 -0.445312 1 -1 v -1 c 0 0.554688 -0.445312 1 -1 1 h -22 c -0.554688 0 -1 -0.445312 -1 -1 z m -12 12 v 1 c 0 0.554688 0.445312 1 1 1 h 10 c 0.554688 0 1 -0.445312 1 -1 v -1 c 0 0.554688 -0.445312 1 -1 1 h -10 c -0.554688 0 -1 -0.445312 -1 -1 z m 36 0 v 1 c 0 0.554688 0.445312 1 1 1 h 10 c 0.554688 0 1 -0.445312 1 -1 v -1 c 0 0.554688 -0.445312 1 -1 1 h -10 c -0.554688 0 -1 -0.445312 -1 -1 z m -60 15.832031 v 2 c 0 4.523438 3.292969 8.167969 7.386719 8.167969 h 81.226562 c 4.09375 0 7.386719 -3.644531 7.386719 -8.167969 v -2 c 0 4.523438 -3.292969 8.167969 -7.386719 8.167969 h -81.226562 c -4.09375 0 -7.386719 -3.644531 -7.386719 -8.167969 z m 0 0" fill="#c5674b"/>
</svg>
